# xmcd
#
# Track frame offsets:
#	150
#	20287
#	37930
#	56398
#	73741
#	96704
#
# Disc length: 1556 seconds
#
# Revision: 1
# Processed by: cddbd v1.5.2PL0 Copyright (c) Steve Scherf et al.
# Submitted via: audiograbber 1.83.01
#
DISCID=4a061206
DTITLE=Mary Spender - Live in Bristol
DYEAR=2016
DGENRE=Blues
TTITLE0=Spire
TTITLE1=Fleetwood Mac
TTITLE2=Primrose
TTITLE3=Long Island City
TTITLE4=Caffe Vivaldi
TTITLE5=Blues Duet
EXTD=
EXTT0=
EXTT1=
EXTT2=
EXTT3=
EXTT4=
EXTT5=
PLAYORDER=
